<?xml version="1.0" encoding="UTF-8"?>
<svg id="Layer_1" xmlns="http://www.w3.org/2000/svg" version="1.1" viewBox="-13.6 -7.4 181.3 98.6">
  <!-- Generator: Adobe Illustrator 30.6.0, SVG Export Plug-In . SVG Version: 2.1.4 Build 109)  -->
  <defs>
    <style>
      .st0 {
        fill: #fbf8ec;
      }

      .st1 {
        fill: #912747;
      }

      .st2 {
        fill: #e6e5e0;
      }

      .st3 {
        fill: #0c473f;
      }

      .st4 {
        fill: #d3d3d0;
      }

      .st5 {
        fill: #9a254a;
      }

      .st6 {
        fill: #952547;
      }

      .st7 {
        fill: #962648;
      }

      .st8 {
        fill: #0c463e;
      }
    </style>
  </defs>
  <path class="st5" d="M44.9,21.4H2.3C1,21.4.1,19.9,0,19s.8-2.7,2.2-2.7h42.4c1.5,0,2.2,1.3,2.3,2.3.1,1.1-.6,2.4-2.2,2.8h0Z"/>
  <path class="st6" d="M45.2,49.1H9.3c-1.6.1-2.6-1.4-2.5-2.6s1.2-2.5,2.8-2.5h35.1c1.3,0,2.1,1.1,2.3,2.1s-.2,3-1.8,3h0Z"/>
  <path class="st7" d="M45.2,35.1l-26.1.2c-1.5,0-2.6-.8-2.8-2.1s.6-2.9,2.1-2.9h26c1.4,0,2.3.9,2.6,2s-.3,2.9-1.8,2.9h0Z"/>
  <g>
    <g>
      <path class="st3" d="M69.8,69h45.5c1.5-6.6,7.6-10.5,14.3-9.3,4.7.9,8.3,4.4,9.3,9.2h7.5c1.6.1,2.8-1.1,2.8-2.6v-17.5c0-4.5-4.1-5.6-8.5-7.5h-27.3c-3.6-.1-6.6-2.3-6.7-6.1v-15.4c0-3.5,2.5-6.2,5.9-6.2h11l-3.2-5.6c-1.2-2.1-3.4-3.2-6-3.2H40.4c-5,0-3.4,6.4-4.4,7s-2.8.5-4.2,0c-1.5-5.2,1.8-11.7,7.8-11.7l74.8-.2c4.1,0,7.9,1.6,10,5.2l18.6,31.6,5.3,2.5c3.1,1.5,5.8,4.6,5.8,8.4v19.5c0,3.7-3.7,6.7-7.3,6.7h-7.9c-1.2,5.9-6.3,9.8-11.8,9.8s-10.6-3.8-11.8-9.7h-45.6c-1.2,5.7-5.7,9.3-11.2,9.6-5.5.3-11.1-3.6-12.4-9.5h-7.6c-4.4-.1-7.1-4-7-8.2l.2-12c1.5-.6,3.1-.4,4.6-.2v12.8c.1,1.6,1.4,2.6,3,2.6h6.9c1.4-5.7,6.1-9.4,11.7-9.5,5.5-.1,10.5,3.5,12,9.5v-.2c.1,0,0,0,0,0Z"/>
      <path class="st2" d="M113.2,36.4c-1.1,0-1.6-.7-1.6-1.5v-15c0-.9.6-1.5,1.4-1.5h13.5c0,.1,10.6,18,10.6,18h-23.9Z"/>
      <circle class="st0" cx="127.1" cy="71.5" r="7.1"/>
      <circle class="st0" cx="58" cy="71.5" r="7.1"/>
    </g>
    <g>
      <path class="st8" d="M91.9,54.5h-34c-3-.1-5.5-2.9-5.5-5.7v-29.4c0-2.3,2.4-5.4,4.9-5.4h35.5c2.7,0,4.9,3.2,4.9,5.7v28.6c0,3.2-2.3,6.1-5.8,6.1h0Z"/>
      <path class="st4" d="M94.2,48.2c0,1.3-.9,2.7-2.1,2.7h-15.4V17.5h14.6c1.6,0,2.8,1.1,2.8,2.7v28h0Z"/>
      <g>
        <path class="st0" d="M58.5,51c-1.5,0-2.5-1-2.6-2.3v-28.8c0-1.4,1.1-2.4,2.5-2.4h14.8v33.5h-14.7Z"/>
        <path class="st1" d="M68.7,42.8l-7.8.2c-1.2,0-2-.7-2-1.7s.6-2,1.6-2h8c.9.1,1.2,1.1,1.3,1.6s-.2,1.8-1.1,1.9h0Z"/>
      </g>
    </g>
  </g>
</svg>